<svg xmlns="http://www.w3.org/2000/svg" viewBox="0 0 64 64">
  <rect width="64" height="64" rx="14" fill="#202B41"/>
  <g>
    <ellipse cx="32" cy="17.5" rx="6.2" ry="13.5" fill="#C39BD3" transform="rotate(0 32 32)"/>
    <ellipse cx="32" cy="17.5" rx="6.2" ry="13.5" fill="#C39BD3" transform="rotate(45 32 32)"/>
    <ellipse cx="32" cy="17.5" rx="6.2" ry="13.5" fill="#C39BD3" transform="rotate(90 32 32)"/>
    <ellipse cx="32" cy="17.5" rx="6.2" ry="13.5" fill="#C39BD3" transform="rotate(135 32 32)"/>
    <ellipse cx="32" cy="17.5" rx="6.2" ry="13.5" fill="#C39BD3" transform="rotate(180 32 32)"/>
    <ellipse cx="32" cy="17.5" rx="6.2" ry="13.5" fill="#C39BD3" transform="rotate(225 32 32)"/>
    <ellipse cx="32" cy="17.5" rx="6.2" ry="13.5" fill="#C39BD3" transform="rotate(270 32 32)"/>
    <ellipse cx="32" cy="17.5" rx="6.2" ry="13.5" fill="#C39BD3" transform="rotate(315 32 32)"/>
    <circle cx="32" cy="32" r="6.5" fill="#7E57A8"/>
  </g>
</svg>
